<svg width="30" height="30" viewBox="0 0 30 30" fill="none" xmlns="http://www.w3.org/2000/svg">
<circle cx="15" cy="15" r="15" fill="#F5ECD6"/>
<g clip-path="url(#clip0_1078_1003)">
<path d="M16.8525 16.125L14.25 21V16.875H12.75L13.1475 16.125H11.25V21.5025C11.25 22.05 11.7 22.5 12.2475 22.5H17.745C18.3 22.5 18.75 22.05 18.75 21.5025V16.125H16.8525Z" fill="#F3C637"/>
<path d="M17.7525 9H16.5V7.5H13.5V9H12.2475C11.7 9 11.25 9.45 11.25 9.9975V16.125H13.1475L15.75 11.25V15.375H17.25L16.8525 16.125H18.75V9.9975C18.75 9.45 18.3 9 17.7525 9Z" fill="#E8BE2C" fill-opacity="0.64"/>
<path d="M17.7525 9H16.5V7.5H13.5V9H12.2475C11.7 9 11.25 9.45 11.25 9.9975V16.125H13.1475L15.75 11.25V15.375H17.25L16.8525 16.125H18.75V9.9975C18.75 9.45 18.3 9 17.7525 9Z" fill="white" fill-opacity="0.17"/>
</g>
<defs>
<clipPath id="clip0_1078_1003">
<rect width="18" height="18" fill="white" transform="translate(6 6)"/>
</clipPath>
</defs>
</svg>
