<svg width="30" height="30" viewBox="0 0 30 30" fill="none" xmlns="http://www.w3.org/2000/svg">
<circle cx="15" cy="15" r="15" fill="#F5D6D6"/>
<g clip-path="url(#clip0_1078_1506)">
<path d="M17.7525 9H16.5V7.5H13.5V9H12.2475C11.7 9 11.25 9.45 11.25 9.9975V21.495C11.25 22.05 11.7 22.5 12.2475 22.5H17.745C18.3 22.5 18.75 22.05 18.75 21.5025V9.9975C18.75 9.45 18.3 9 17.7525 9ZM15.75 19.5H14.25V18H15.75V19.5ZM16.725 15.5175C16.725 15.5175 16.44 15.8325 16.2225 16.05C15.8625 16.41 15.6 16.9125 15.6 17.25H14.4C14.4 16.6275 14.745 16.11 15.0975 15.75L15.795 15.045C15.9975 14.8425 16.125 14.5575 16.125 14.25C16.125 13.6275 15.6225 13.125 15 13.125C14.3775 13.125 13.875 13.6275 13.875 14.25H12.75C12.75 13.005 13.755 12 15 12C16.245 12 17.25 13.005 17.25 14.25C17.25 14.745 17.0475 15.195 16.725 15.5175Z" fill="#E23B58"/>
</g>
<defs>
<clipPath id="clip0_1078_1506">
<rect width="18" height="18" fill="white" transform="translate(6 6)"/>
</clipPath>
</defs>
</svg>
