<svg width="98" height="98" viewBox="0 0 98 98" fill="none" xmlns="http://www.w3.org/2000/svg">
<path d="M49 93.5C77 93.5 96.3666 75.1599 96.3666 49C96.3666 22.8401 75.1599 1.63333 49 1.63333C22.8401 1.63333 1.6333 22.8401 1.6333 49C1.6333 75.1599 20.9999 93.5 49 93.5Z" fill="#DEF3E7"/>
<path d="M47.5725 58.3751C46.5202 58.3823 45.4543 58.2607 44.5161 57.784C42.9269 56.9764 41.5781 55.746 40.6267 54.2148C39.3943 52.2311 38.9098 49.8728 39.2604 47.5639C39.611 45.255 40.7737 43.1469 42.5395 41.6185C44.3053 40.0901 46.5583 39.2416 48.8937 39.2257C51.229 39.2098 53.4934 40.0274 55.2799 41.5315C57.0664 43.0357 58.2578 45.1278 58.6399 47.4317C59.0219 49.7356 58.5697 52.1003 57.3644 54.1006C56.4341 55.6446 55.1022 56.8934 53.5241 57.7225C52.5925 58.212 51.5283 58.3481 50.476 58.3553L47.5725 58.3751Z" fill="#1B3B4F"/>
<path d="M89.8333 49C89.842 58.6566 86.4145 68.0013 80.1639 75.362C79.8788 75.6913 79.5288 75.9582 79.1359 76.1461C78.7429 76.3341 78.3155 76.439 77.8802 76.4543C77.4449 76.4696 77.0111 76.395 76.6059 76.2352C76.2007 76.0754 75.8329 75.8337 75.5253 75.5253L66.1336 66.1337C65.587 65.595 65.253 64.8772 65.193 64.1121C65.133 63.347 65.351 62.586 65.8069 61.9687C68.6801 58.2565 70.2373 53.6942 70.2333 49C70.2363 48.2743 70.1982 47.549 70.1189 46.8277L69.1716 42.385C68.1365 39.2191 66.368 36.3425 64.0103 33.9897L70.2333 24.5L77.8609 20.139C81.6607 23.9228 84.6746 28.4207 86.7293 33.3739C88.784 38.327 89.8389 43.6376 89.8333 49Z" fill="#E23B58"/>
<path d="M77.8609 20.139L64.0103 33.9897C62.0434 32.0129 59.7051 30.4446 57.1298 29.3749C54.5546 28.3052 51.7933 27.7553 49.0047 27.7568C46.2161 27.7584 43.4554 28.3113 40.8813 29.3837C38.3072 30.4562 35.9706 32.0271 34.0059 34.006L24.4999 29.4L20.1389 20.139C23.9261 16.3438 28.4247 13.3329 33.3771 11.2785C38.3294 9.22411 43.6384 8.16666 48.9999 8.16666C54.3615 8.16666 59.6704 9.22411 64.6228 11.2785C69.5751 13.3329 74.0737 16.3438 77.8609 20.139Z" fill="#F3C637"/>
<path d="M32.1278 61.887C32.6094 62.4967 32.852 63.2613 32.8099 64.0372C32.7678 64.8131 32.4439 65.547 31.8991 66.101L22.4748 75.5253C22.1672 75.8337 21.7993 76.0754 21.3941 76.2352C20.9889 76.395 20.5551 76.4696 20.1198 76.4543C19.6845 76.439 19.2571 76.3341 18.8641 76.1461C18.4712 75.9582 18.1212 75.6913 17.8361 75.362C11.2145 67.5501 7.77524 57.5325 8.20194 47.3007C8.62864 37.069 12.8901 27.3725 20.1391 20.139L34.0061 34.006C30.7207 37.25 28.5967 41.4867 27.9628 46.06C27.576 48.8425 27.745 51.674 28.4599 54.3907C29.1749 57.1074 30.4215 59.6553 32.1278 61.887Z" fill="#46D16A"/>
<path d="M45.7533 50.1845C45.8997 50.6438 46.1448 51.0655 46.4715 51.42C46.7981 51.7744 47.1984 52.0532 47.6442 52.2366C48.09 52.42 48.5705 52.5036 49.0521 52.4816C49.5336 52.4596 50.0045 52.3326 50.4318 52.1093C51.1244 51.6932 51.6494 51.0478 51.9158 50.2849C52.1821 49.5221 52.1729 48.6901 51.8897 47.9334C48.7202 38.6375 44.2435 28.3172 40.7364 20.6715C40.5887 20.3281 40.3166 20.0532 39.9748 19.9018C39.633 19.7504 39.2467 19.7337 38.8931 19.8549C38.5394 19.9762 38.2447 20.2265 38.0677 20.5559C37.8908 20.8852 37.8448 21.2691 37.9388 21.6309C39.8257 29.873 42.5829 40.8542 45.7533 50.1845Z" fill="#294960"/>
</svg>
