<svg width="20" height="20" viewBox="0 0 20 20" fill="none" xmlns="http://www.w3.org/2000/svg">
<g clip-path="url(#clip0_1067_8262)">
<path d="M17.5 11.6667C17.5 11.2083 17.125 10.8333 16.6667 10.8333H15V12.5H16.6667C17.125 12.5 17.5 12.125 17.5 11.6667Z" fill="black"/>
<path d="M16.6667 14.1667H15V15.8334H16.6667C17.125 15.8334 17.5 15.4584 17.5 15C17.5 14.5417 17.125 14.1667 16.6667 14.1667Z" fill="black"/>
<path d="M9.99992 11.6667H8.33325V15H9.99992C9.99992 15.9167 10.7499 16.6667 11.6666 16.6667H14.1666V10H11.6666C10.7499 10 9.99992 10.75 9.99992 11.6667Z" fill="black"/>
<path d="M4.16667 10.8333C4.16667 9.91668 4.91667 9.16668 5.83333 9.16668H7.08333C8.69167 9.16668 10 7.85834 10 6.25001C10 4.64168 8.69167 3.33334 7.08333 3.33334H4.16667C3.70833 3.33334 3.33333 3.70834 3.33333 4.16668C3.33333 4.62501 3.70833 5.00001 4.16667 5.00001H7.08333C7.775 5.00001 8.33333 5.55834 8.33333 6.25001C8.33333 6.94168 7.775 7.50001 7.08333 7.50001H5.83333C3.99167 7.50001 2.5 8.99168 2.5 10.8333C2.5 12.675 3.99167 14.1667 5.83333 14.1667H7.5V12.5H5.83333C4.91667 12.5 4.16667 11.75 4.16667 10.8333Z" fill="black"/>
</g>
<defs>
<clipPath id="clip0_1067_8262">
<rect width="20" height="20" fill="white"/>
</clipPath>
</defs>
</svg>
