<svg width="83" height="275" viewBox="0 0 83 275" fill="none" xmlns="http://www.w3.org/2000/svg">
<circle cx="41.5" cy="41.5" r="38" stroke="#F3C637" stroke-width="7"/>
<g clip-path="url(#clip0_68_2490)">
<path d="M48.7284 26.3333H45.6667V22.6667H38.3334V26.3333H35.2717C33.9334 26.3333 32.8334 27.4333 32.8334 28.7717V56.8767C32.8334 58.2333 33.9334 59.3333 35.2717 59.3333H48.71C50.0667 59.3333 51.1667 58.2333 51.1667 56.895V28.7717C51.1667 27.4333 50.0667 26.3333 48.7284 26.3333ZM40.1667 55.6667V45.5833H36.5L43.8334 31.8333V41.9167H47.5L40.1667 55.6667Z" fill="#F3C637"/>
</g>
<circle cx="41.5" cy="137.5" r="38" stroke="#7B61FF" stroke-width="7"/>
<g clip-path="url(#clip1_68_2490)">
<path d="M43.9166 125.5V131.25H49.6666V135.083H43.9166V140.833H40.0833V135.083H34.3333V131.25H40.0833V125.5H43.9166ZM53.5 133.55C53.5 126.593 48.4208 121.667 42 121.667C35.5791 121.667 30.5 126.593 30.5 133.55C30.5 138.035 34.2375 143.977 42 151.068C49.7625 143.977 53.5 138.035 53.5 133.55ZM42 117.833C50.05 117.833 57.3333 124.005 57.3333 133.55C57.3333 139.913 52.2158 147.446 42 156.167C31.7841 147.446 26.6666 139.913 26.6666 133.55C26.6666 124.005 33.95 117.833 42 117.833Z" fill="#7B61FF"/>
</g>
<circle cx="41.5" cy="233.5" r="38" stroke="#E23B58" stroke-width="7"/>
<g clip-path="url(#clip2_68_2490)">
<path d="M60 237C60 235.9 59.1 235 58 235H54V239H58C59.1 239 60 238.1 60 237Z" fill="#E23B58"/>
<path d="M58 243H54V247H58C59.1 247 60 246.1 60 245C60 243.9 59.1 243 58 243Z" fill="#E23B58"/>
<path d="M42 237H38V245H42C42 247.2 43.8 249 46 249H52V233H46C43.8 233 42 234.8 42 237Z" fill="#E23B58"/>
<path d="M28 235C28 232.8 29.8 231 32 231H35C38.86 231 42 227.86 42 224C42 220.14 38.86 217 35 217H28C26.9 217 26 217.9 26 219C26 220.1 26.9 221 28 221H35C36.66 221 38 222.34 38 224C38 225.66 36.66 227 35 227H32C27.58 227 24 230.58 24 235C24 239.42 27.58 243 32 243H36V239H32C29.8 239 28 237.2 28 235Z" fill="#E23B58"/>
</g>
<defs>
<clipPath id="clip0_68_2490">
<rect width="44" height="44" fill="white" transform="translate(20 19)"/>
</clipPath>
<clipPath id="clip1_68_2490">
<rect width="46" height="46" fill="white" transform="translate(19 114)"/>
</clipPath>
<clipPath id="clip2_68_2490">
<rect width="48" height="48" fill="white" transform="translate(18 209)"/>
</clipPath>
</defs>
</svg>
