<svg width="313" height="434" viewBox="0 0 313 434" fill="none" xmlns="http://www.w3.org/2000/svg">
<mask id="path-1-inside-1_471_37681" fill="white">
<path d="M0 0H313V434H0V0Z"/>
</mask>
<path d="M0 0H313V434H0V0Z" fill="white"/>
<g opacity="0.5" clip-path="url(#clip0_471_37681)">
<path d="M80.6863 357.099L61.7404 347.874L55.4587 320.196L50.1688 321.428L54.7567 347.577L36.5977 337.161L32.6201 341.029L56.6543 353.998L80.6885 363.549L80.6863 357.099Z" fill="#F0F0F0"/>
<path d="M88.3479 434.003H74.4644L78.058 316.723H91.9417L88.3479 434.003Z" fill="#F0F0F0"/>
<path d="M81.2107 25C81.2107 26.6074 43.9474 126.241 43.9474 126.241L62.5796 110.17L35.7374 179.809L53.4209 158.922L32.5796 246.239L42.6849 237.133L25.0015 298.736L40.16 282.665L25.0015 328.735L145.001 321.235L116.582 234.454L133.747 250.525L111.53 187.313L122.898 192.67L97.0033 111.246L109.005 118.209L81.2107 25Z" fill="#F0F0F0"/>
<path d="M85.2366 202.844C85.0888 203.355 84.8896 203.85 84.6422 204.32L82.7672 208.362C81.0688 211.896 78.7432 216.717 76.0496 222.312L75.7541 222.925L75.3816 222.339C73.5072 219.396 71.8693 216.308 70.4834 213.106C69.9479 211.862 69.4645 210.631 69.0365 209.451L69.7702 209.475C66.4572 216.634 63.2179 222.87 60.7745 227.296C59.5539 229.51 58.5405 231.274 57.8204 232.481L56.9735 233.859C56.7731 234.171 56.6564 234.33 56.6338 234.319C56.8892 233.648 57.2002 232.998 57.5634 232.378C58.2541 231.049 59.1757 229.277 60.3012 227.114C62.6143 222.644 65.762 216.389 69.0455 209.234L69.4508 208.354L69.7792 209.259C70.2038 210.427 70.685 211.649 71.2183 212.879C72.5916 216.049 74.2013 219.112 76.0337 222.042L75.3657 222.069L82.3437 208.212L84.4158 204.239C84.6433 203.748 84.9182 203.281 85.2366 202.844Z" fill="#D3D3D3"/>
<path d="M98.0195 165.653C97.7505 165.323 97.5224 164.962 97.3402 164.578L95.6147 161.535C94.128 158.944 91.9507 155.331 89.1212 151.293L89.8073 151.213C89.2084 153.173 88.5618 155.285 87.8916 157.475C87.4681 158.839 87.0549 160.173 86.6563 161.458L86.3789 162.351L85.926 161.51C83.3683 156.679 81.1525 152.425 79.5979 149.37L77.801 145.764C77.5573 145.343 77.3671 144.893 77.2349 144.424C77.5523 144.807 77.825 145.224 78.0478 145.669L80.0541 149.194C81.7333 152.201 84.0374 156.422 86.6212 161.241L85.8989 161.293C86.2929 160.006 86.7027 158.672 87.1216 157.306C87.801 155.12 88.46 153.008 89.0691 151.052L89.2956 150.308L89.7485 150.971C92.0479 154.306 94.1434 157.778 96.0234 161.366C96.7106 162.688 97.2224 163.754 97.553 164.493C97.7611 164.856 97.9181 165.247 98.0195 165.653Z" fill="#D3D3D3"/>
<path d="M81.0214 89.319C80.4145 90.5553 79.706 91.7392 78.903 92.8584C77.5047 95.0303 75.5062 98.046 73.2021 101.463L72.6768 102.242L72.49 101.357C72.2794 100.367 72.062 99.3412 71.8389 98.2915L70.7735 93.1186L71.4528 93.2317C69.3106 96.1094 67.4458 98.5709 66.0996 100.302C65.4275 101.263 64.6744 102.164 63.8486 102.997C64.3791 101.976 65.0006 101.004 65.7055 100.095C66.9419 98.3039 68.7218 95.7961 70.821 92.898L71.3294 92.1944L71.5026 93.0089C71.8423 94.6231 72.2194 96.364 72.6077 98.1773C72.8251 99.227 73.038 100.253 73.2441 101.244L72.5318 101.139C74.8677 97.735 76.9476 94.76 78.4637 92.6469C79.2272 91.472 80.0824 90.3593 81.0214 89.319Z" fill="#D3D3D3"/>
</g>
<path d="M220.847 222.887L231.723 223.524C234.439 223.556 237.138 223.967 239.739 224.744L239.818 224.776C241.489 225.489 242.982 226.557 244.191 227.906C245.401 229.254 246.297 230.849 246.816 232.579L253.061 250.546C253.329 251.317 253.291 252.16 252.953 252.904C252.615 253.647 252.004 254.234 251.244 254.545L246.189 256.616C245.781 256.782 245.343 256.865 244.902 256.857C244.461 256.849 244.026 256.752 243.625 256.571C243.223 256.39 242.863 256.13 242.567 255.805C242.271 255.481 242.045 255.1 241.903 254.685L237.953 243.104C237.856 242.837 237.678 242.605 237.444 242.442C237.209 242.279 236.929 242.192 236.643 242.193L220.069 241.367C217.99 235.327 218.267 228.733 220.847 222.887Z" fill="#7A827D"/>
<path d="M228.085 243.354V258.802C228.899 259.061 229.75 259.193 230.605 259.193C231.688 259.208 232.764 259.01 233.769 258.609C234.775 258.208 235.69 257.613 236.461 256.858C237.232 256.103 237.845 255.204 238.263 254.212C238.681 253.221 238.897 252.157 238.897 251.082C238.897 250.007 238.681 248.943 238.263 247.951C237.845 246.959 237.232 246.06 236.461 245.305C235.69 244.551 234.775 243.955 233.769 243.555C232.764 243.154 231.688 242.955 230.605 242.97C229.75 242.968 228.9 243.097 228.085 243.354Z" fill="#7A827D"/>
<path d="M249.624 423.352C251.895 423.35 254.131 422.8 256.141 421.75C263.043 418.181 267 409.448 267 397.793C267 397.714 266.997 397.634 266.991 397.554C265.864 384.81 263.877 372.155 261.043 359.674C258.746 348.66 259.342 336.985 256.642 316.715C255.358 307.034 252.004 252.694 252.017 252.498L246.189 255.046C246.134 255.886 249.69 307.226 251.052 317.455C253.781 337.926 253.203 349.708 255.52 360.816C258.299 373.042 260.25 385.438 261.361 397.922C261.337 407.224 258.414 414.278 253.534 416.802C251.951 417.575 250.177 417.884 248.423 417.691C246.669 417.498 245.006 416.813 243.632 415.714C237.167 411.234 231.242 398.942 233.973 377.872C240.569 348.728 244.619 326.394 244.431 305.19C243.885 265.783 238.431 256.343 237.809 255.397L233.082 258.445C233.1 258.478 238.27 267.608 238.792 305.253C238.975 325.937 234.967 347.954 228.441 376.772C228.422 376.854 228.408 376.939 228.396 377.025C225.769 397.091 230.257 413.27 240.403 420.301C243.087 422.236 246.307 423.302 249.624 423.352Z" fill="#7A827D"/>
<mask id="path-12-inside-2_471_37681" fill="white">
<path d="M106.854 201.377C106.854 195.854 111.332 191.377 116.854 191.377H218.139C223.662 191.377 228.139 195.854 228.139 201.377V434H106.854V201.377Z"/>
</mask>
<path d="M106.854 201.377C106.854 195.854 111.332 191.377 116.854 191.377H218.139C223.662 191.377 228.139 195.854 228.139 201.377V434H106.854V201.377Z" fill="#F8F8F8"/>
<path d="M168.532 334.745L152.533 365.287H168.15L160.315 386.854L179.819 356.664H164.426L168.532 334.745Z" fill="#7A827D"/>
<rect x="144.657" y="221.311" width="42.5283" height="91.3774" rx="21.2641" fill="#7A827D"/>
<path d="M176.622 297.592H155.594C155.186 297.577 154.801 297.403 154.522 297.106C154.244 296.81 154.095 296.417 154.109 296.012V242.831C154.095 242.426 154.244 242.033 154.522 241.736C154.801 241.44 155.186 241.266 155.594 241.251H159.653L159.534 237.07C159.521 236.666 159.67 236.272 159.948 235.976C160.226 235.68 160.611 235.505 161.019 235.49H171.2C171.607 235.506 171.992 235.681 172.27 235.977C172.548 236.273 172.696 236.666 172.683 237.07V241.265C172.68 241.277 172.68 241.29 172.683 241.302L176.619 241.251C177.026 241.266 177.411 241.441 177.689 241.737C177.967 242.033 178.115 242.426 178.102 242.831V296.012C178.115 296.416 177.967 296.809 177.69 297.105C177.413 297.401 177.029 297.576 176.622 297.592ZM155.594 242.843L155.714 296.012L176.625 296L176.503 242.831L172.564 242.843C172.156 242.829 171.771 242.655 171.492 242.359C171.214 242.063 171.065 241.67 171.078 241.265V237.07L161.019 237.083L161.14 241.265C161.153 241.67 161.003 242.063 160.725 242.359C160.446 242.655 160.061 242.829 159.653 242.843H155.594Z" fill="white"/>
<path d="M173.344 245.054H158.868C158.345 245.054 157.921 245.475 157.921 245.993V248.108C157.921 248.627 158.345 249.048 158.868 249.048H173.344C173.867 249.048 174.291 248.627 174.291 248.108V245.993C174.291 245.475 173.867 245.054 173.344 245.054Z" fill="white"/>
<path d="M173.344 250.555H158.868C158.345 250.555 157.921 250.975 157.921 251.494V253.609C157.921 254.128 158.345 254.549 158.868 254.549H173.344C173.867 254.549 174.291 254.128 174.291 253.609V251.494C174.291 250.975 173.867 250.555 173.344 250.555Z" fill="white"/>
<path d="M173.344 256.057H158.868C158.345 256.057 157.921 256.477 157.921 256.996V259.111C157.921 259.63 158.345 260.051 158.868 260.051H173.344C173.867 260.051 174.291 259.63 174.291 259.111V256.996C174.291 256.477 173.867 256.057 173.344 256.057Z" fill="white"/>
<path d="M173.344 261.559H158.868C158.345 261.559 157.921 261.98 157.921 262.499V264.614C157.921 265.133 158.345 265.553 158.868 265.553H173.344C173.867 265.553 174.291 265.133 174.291 264.614V262.499C174.291 261.98 173.867 261.559 173.344 261.559Z" fill="white"/>
<path d="M173.344 267.061H158.868C158.345 267.061 157.921 267.482 157.921 268.001V270.116C157.921 270.635 158.345 271.055 158.868 271.055H173.344C173.867 271.055 174.291 270.635 174.291 270.116V268.001C174.291 267.482 173.867 267.061 173.344 267.061Z" fill="white"/>
<path d="M173.344 272.564H158.868C158.345 272.564 157.921 272.984 157.921 273.503V275.618C157.921 276.137 158.345 276.558 158.868 276.558H173.344C173.867 276.558 174.291 276.137 174.291 275.618V273.503C174.291 272.984 173.867 272.564 173.344 272.564Z" fill="white"/>
<path d="M173.344 278.066H158.868C158.345 278.066 157.921 278.487 157.921 279.006V281.12C157.921 281.639 158.345 282.06 158.868 282.06H173.344C173.867 282.06 174.291 281.639 174.291 281.12V279.006C174.291 278.487 173.867 278.066 173.344 278.066Z" fill="white"/>
<path d="M173.344 283.584H158.868C158.345 283.584 157.921 284.005 157.921 284.524V286.639C157.921 287.158 158.345 287.578 158.868 287.578H173.344C173.867 287.578 174.291 287.158 174.291 286.639V284.524C174.291 284.005 173.867 283.584 173.344 283.584Z" fill="white"/>
<path d="M173.344 289.176H158.868C158.345 289.176 157.921 289.596 157.921 290.115V292.23C157.921 292.749 158.345 293.17 158.868 293.17H173.344C173.867 293.17 174.291 292.749 174.291 292.23V290.115C174.291 289.596 173.867 289.176 173.344 289.176Z" fill="white"/>
<path d="M106.154 198.577C106.154 192.668 110.945 187.877 116.854 187.877H218.139C224.048 187.877 228.839 192.668 228.839 198.577L227.439 201.377C227.439 197.787 223.275 194.877 218.139 194.877H116.854C111.718 194.877 107.554 197.787 107.554 201.377L106.154 198.577ZM228.139 434H106.854H228.139ZM106.154 434V198.577C106.154 192.668 110.945 187.877 116.854 187.877V194.877C111.718 194.877 107.554 197.787 107.554 201.377V434H106.154ZM218.139 187.877C224.048 187.877 228.839 192.668 228.839 198.577V434H227.439V201.377C227.439 197.787 223.275 194.877 218.139 194.877V187.877Z" fill="#7A827D" mask="url(#path-12-inside-2_471_37681)"/>
<path d="M158.996 76.8H279.738C279.738 76.8 269.061 57.371 237.983 60.2C208.302 62.9 206.792 50.642 191.7 49.133C176.608 47.624 164.031 59.193 158.996 76.8Z" fill="#F0F0F0"/>
<path d="M312 0V434H314V0H312Z" fill="#EBEBEB" mask="url(#path-1-inside-1_471_37681)"/>
<defs>
<clipPath id="clip0_471_37681">
<rect width="120" height="409" fill="white" transform="translate(25 25)"/>
</clipPath>
</defs>
</svg>
